<svg version="1.1" xmlns="http://www.w3.org/2000/svg" viewBox="0 0 472 455" width="472" height="455">
  <!-- svg-source:excalidraw -->
  
  <defs>
    <style>
      @font-face {
        font-family: "Virgil";
        src: url("https://excalidraw.com/Virgil.woff2");
      }
      @font-face {
        font-family: "Cascadia";
        src: url("https://excalidraw.com/Cascadia.woff2");
      }
    </style>
  </defs>
  <g stroke-linecap="round" transform="translate(10 10) rotate(0 226 217.5)"><path d="M108.75 0 L343.25 0 L368.74 1.7 L380.21 3.82 L390.83 6.8 L400.6 10.62 L409.52 15.29 L417.59 20.82 L424.81 27.19 L431.18 34.41 L436.71 42.48 L441.38 51.4 L445.2 61.17 L448.18 71.79 L451.58 95.58 L451.58 339.42 L448.18 363.21 L445.2 373.83 L441.38 383.6 L436.71 392.52 L431.18 400.59 L424.81 407.81 L417.59 414.18 L409.52 419.71 L400.6 424.38 L390.83 428.2 L380.21 431.18 L356.42 434.58 L95.58 434.58 L71.79 431.18 L61.17 428.2 L51.4 424.38 L42.48 419.71 L34.41 414.18 L27.19 407.81 L20.82 400.59 L15.29 392.52 L10.62 383.6 L6.8 373.83 L3.82 363.21 L0.42 339.42 L0 108.75 L0.42 95.58 L3.82 71.79 L6.8 61.17 L10.62 51.4 L15.29 42.48 L20.82 34.41 L27.19 27.19 L34.41 20.82 L42.48 15.29 L51.4 10.62 L61.17 6.8 L71.79 3.82 L83.26 1.7 L108.75 0" stroke="none" stroke-width="0" fill="#1982c4"></path><path d="M108.75 0 M108.75 0 C192.44 0, 276.13 0, 343.25 0 M108.75 0 C188.44 0, 268.13 0, 343.25 0 M343.25 0 C415.75 0, 452 36.25, 452 108.75 M343.25 0 C415.75 0, 452 36.25, 452 108.75 M452 108.75 C452 153.19, 452 197.62, 452 326.25 M452 108.75 C452 173.91, 452 239.06, 452 326.25 M452 326.25 C452 398.75, 415.75 435, 343.25 435 M452 326.25 C452 398.75, 415.75 435, 343.25 435 M343.25 435 C270.92 435, 198.59 435, 108.75 435 M343.25 435 C283.84 435, 224.42 435, 108.75 435 M108.75 435 C36.25 435, 0 398.75, 0 326.25 M108.75 435 C36.25 435, 0 398.75, 0 326.25 M0 326.25 C0 280.74, 0 235.24, 0 108.75 M0 326.25 C0 256.94, 0 187.62, 0 108.75 M0 108.75 C0 36.25, 36.25 0, 108.75 0 M0 108.75 C0 36.25, 36.25 0, 108.75 0" stroke="#000" stroke-width="4" fill="none"></path></g><g stroke-linecap="round" transform="translate(259 71) rotate(0 71.5 72.5)"><path d="M143 72.5 C143 75.21, 142.85 77.93, 142.55 80.62 C142.25 83.31, 141.8 85.99, 141.21 88.63 C140.61 91.27, 139.87 93.89, 138.99 96.45 C138.11 99, 137.08 101.52, 135.92 103.96 C134.76 106.39, 133.46 108.78, 132.04 111.07 C130.62 113.36, 129.06 115.59, 127.4 117.7 C125.74 119.82, 123.95 121.85, 122.06 123.77 C120.17 125.68, 118.17 127.5, 116.08 129.18 C113.99 130.87, 111.8 132.45, 109.54 133.89 C107.28 135.33, 104.93 136.65, 102.52 137.82 C100.12 138.99, 97.63 140.04, 95.11 140.93 C92.6 141.83, 90.01 142.58, 87.41 143.18 C84.81 143.78, 82.16 144.24, 79.51 144.54 C76.85 144.85, 74.17 145, 71.5 145 C68.83 145, 66.15 144.85, 63.49 144.54 C60.84 144.24, 58.19 143.78, 55.59 143.18 C52.99 142.58, 50.4 141.83, 47.89 140.93 C45.37 140.04, 42.88 138.99, 40.48 137.82 C38.07 136.65, 35.72 135.33, 33.46 133.89 C31.2 132.45, 29.01 130.87, 26.92 129.18 C24.83 127.5, 22.83 125.68, 20.94 123.77 C19.05 121.85, 17.26 119.82, 15.6 117.7 C13.94 115.59, 12.38 113.36, 10.96 111.07 C9.54 108.78, 8.24 106.39, 7.08 103.96 C5.92 101.52, 4.89 99, 4.01 96.45 C3.13 93.89, 2.39 91.27, 1.79 88.63 C1.2 85.99, 0.75 83.31, 0.45 80.62 C0.15 77.93, 0 75.21, 0 72.5 C0 69.79, 0.15 67.07, 0.45 64.38 C0.75 61.69, 1.2 59.01, 1.79 56.37 C2.39 53.73, 3.13 51.11, 4.01 48.55 C4.89 46, 5.92 43.48, 7.08 41.04 C8.24 38.61, 9.54 36.22, 10.96 33.93 C12.38 31.64, 13.94 29.41, 15.6 27.3 C17.26 25.18, 19.05 23.15, 20.94 21.23 C22.83 19.32, 24.83 17.5, 26.92 15.82 C29.01 14.13, 31.2 12.55, 33.46 11.11 C35.72 9.67, 38.07 8.35, 40.48 7.18 C42.88 6.01, 45.37 4.96, 47.89 4.07 C50.4 3.17, 52.99 2.42, 55.59 1.82 C58.19 1.22, 60.84 0.76, 63.49 0.46 C66.15 0.15, 68.83 0, 71.5 0 C74.17 0, 76.85 0.15, 79.51 0.46 C82.16 0.76, 84.81 1.22, 87.41 1.82 C90.01 2.42, 92.6 3.17, 95.11 4.07 C97.63 4.96, 100.12 6.01, 102.52 7.18 C104.93 8.35, 107.28 9.67, 109.54 11.11 C111.8 12.55, 113.99 14.13, 116.08 15.82 C118.17 17.5, 120.17 19.32, 122.06 21.23 C123.95 23.15, 125.74 25.18, 127.4 27.3 C129.06 29.41, 130.62 31.64, 132.04 33.93 C133.46 36.22, 134.76 38.61, 135.92 41.04 C137.08 43.48, 138.11 46, 138.99 48.55 C139.87 51.11, 140.61 53.73, 141.21 56.37 C141.8 59.01, 142.25 61.69, 142.55 64.38 C142.85 67.07, 142.93 71.15, 143 72.5 C143.07 73.85, 143.07 71.15, 143 72.5" stroke="none" stroke-width="0" fill="#ff595e"></path><path d="M143 72.5 C143 75.21, 142.85 77.93, 142.55 80.62 C142.25 83.31, 141.8 85.99, 141.21 88.63 C140.61 91.27, 139.87 93.89, 138.99 96.45 C138.11 99, 137.08 101.52, 135.92 103.96 C134.76 106.39, 133.46 108.78, 132.04 111.07 C130.62 113.36, 129.06 115.59, 127.4 117.7 C125.74 119.82, 123.95 121.85, 122.06 123.77 C120.17 125.68, 118.17 127.5, 116.08 129.18 C113.99 130.87, 111.8 132.45, 109.54 133.89 C107.28 135.33, 104.93 136.65, 102.52 137.82 C100.12 138.99, 97.63 140.04, 95.11 140.93 C92.6 141.83, 90.01 142.58, 87.41 143.18 C84.81 143.78, 82.16 144.24, 79.51 144.54 C76.85 144.85, 74.17 145, 71.5 145 C68.83 145, 66.15 144.85, 63.49 144.54 C60.84 144.24, 58.19 143.78, 55.59 143.18 C52.99 142.58, 50.4 141.83, 47.89 140.93 C45.37 140.04, 42.88 138.99, 40.48 137.82 C38.07 136.65, 35.72 135.33, 33.46 133.89 C31.2 132.45, 29.01 130.87, 26.92 129.18 C24.83 127.5, 22.83 125.68, 20.94 123.77 C19.05 121.85, 17.26 119.82, 15.6 117.7 C13.94 115.59, 12.38 113.36, 10.96 111.07 C9.54 108.78, 8.24 106.39, 7.08 103.96 C5.92 101.52, 4.89 99, 4.01 96.45 C3.13 93.89, 2.39 91.27, 1.79 88.63 C1.2 85.99, 0.75 83.31, 0.45 80.62 C0.15 77.93, 0 75.21, 0 72.5 C0 69.79, 0.15 67.07, 0.45 64.38 C0.75 61.69, 1.2 59.01, 1.79 56.37 C2.39 53.73, 3.13 51.11, 4.01 48.55 C4.89 46, 5.92 43.48, 7.08 41.04 C8.24 38.61, 9.54 36.22, 10.96 33.93 C12.38 31.64, 13.94 29.41, 15.6 27.3 C17.26 25.18, 19.05 23.15, 20.94 21.23 C22.83 19.32, 24.83 17.5, 26.92 15.82 C29.01 14.13, 31.2 12.55, 33.46 11.11 C35.72 9.67, 38.07 8.35, 40.48 7.18 C42.88 6.01, 45.37 4.96, 47.89 4.07 C50.4 3.17, 52.99 2.42, 55.59 1.82 C58.19 1.22, 60.84 0.76, 63.49 0.46 C66.15 0.15, 68.83 0, 71.5 0 C74.17 0, 76.85 0.15, 79.51 0.46 C82.16 0.76, 84.81 1.22, 87.41 1.82 C90.01 2.42, 92.6 3.17, 95.11 4.07 C97.63 4.96, 100.12 6.01, 102.52 7.18 C104.93 8.35, 107.28 9.67, 109.54 11.11 C111.8 12.55, 113.99 14.13, 116.08 15.82 C118.17 17.5, 120.17 19.32, 122.06 21.23 C123.95 23.15, 125.74 25.18, 127.4 27.3 C129.06 29.41, 130.62 31.64, 132.04 33.93 C133.46 36.22, 134.76 38.61, 135.92 41.04 C137.08 43.48, 138.11 46, 138.99 48.55 C139.87 51.11, 140.61 53.73, 141.21 56.37 C141.8 59.01, 142.25 61.69, 142.55 64.38 C142.85 67.07, 142.93 71.15, 143 72.5 C143.07 73.85, 143.07 71.15, 143 72.5" stroke="#000000" stroke-width="4" fill="none"></path></g><g stroke-linecap="round" transform="translate(256.5 241.5) rotate(0 71.5 72.5)"><path d="M143 72.5 C143 75.21, 142.85 77.93, 142.55 80.62 C142.25 83.31, 141.8 85.99, 141.21 88.63 C140.61 91.27, 139.87 93.89, 138.99 96.45 C138.11 99, 137.08 101.52, 135.92 103.96 C134.76 106.39, 133.46 108.78, 132.04 111.07 C130.62 113.36, 129.06 115.59, 127.4 117.7 C125.74 119.82, 123.95 121.85, 122.06 123.77 C120.17 125.68, 118.17 127.5, 116.08 129.18 C113.99 130.87, 111.8 132.45, 109.54 133.89 C107.28 135.33, 104.93 136.65, 102.52 137.82 C100.12 138.99, 97.63 140.04, 95.11 140.93 C92.6 141.83, 90.01 142.58, 87.41 143.18 C84.81 143.78, 82.16 144.24, 79.51 144.54 C76.85 144.85, 74.17 145, 71.5 145 C68.83 145, 66.15 144.85, 63.49 144.54 C60.84 144.24, 58.19 143.78, 55.59 143.18 C52.99 142.58, 50.4 141.83, 47.89 140.93 C45.37 140.04, 42.88 138.99, 40.48 137.82 C38.07 136.65, 35.72 135.33, 33.46 133.89 C31.2 132.45, 29.01 130.87, 26.92 129.18 C24.83 127.5, 22.83 125.68, 20.94 123.77 C19.05 121.85, 17.26 119.82, 15.6 117.7 C13.94 115.59, 12.38 113.36, 10.96 111.07 C9.54 108.78, 8.24 106.39, 7.08 103.96 C5.92 101.52, 4.89 99, 4.01 96.45 C3.13 93.89, 2.39 91.27, 1.79 88.63 C1.2 85.99, 0.75 83.31, 0.45 80.62 C0.15 77.93, 0 75.21, 0 72.5 C0 69.79, 0.15 67.07, 0.45 64.38 C0.75 61.69, 1.2 59.01, 1.79 56.37 C2.39 53.73, 3.13 51.11, 4.01 48.55 C4.89 46, 5.92 43.48, 7.08 41.04 C8.24 38.61, 9.54 36.22, 10.96 33.93 C12.38 31.64, 13.94 29.41, 15.6 27.3 C17.26 25.18, 19.05 23.15, 20.94 21.23 C22.83 19.32, 24.83 17.5, 26.92 15.82 C29.01 14.13, 31.2 12.55, 33.46 11.11 C35.72 9.67, 38.07 8.35, 40.48 7.18 C42.88 6.01, 45.37 4.96, 47.89 4.07 C50.4 3.17, 52.99 2.42, 55.59 1.82 C58.19 1.22, 60.84 0.76, 63.49 0.46 C66.15 0.15, 68.83 0, 71.5 0 C74.17 0, 76.85 0.15, 79.51 0.46 C82.16 0.76, 84.81 1.22, 87.41 1.82 C90.01 2.42, 92.6 3.17, 95.11 4.07 C97.63 4.96, 100.12 6.01, 102.52 7.18 C104.93 8.35, 107.28 9.67, 109.54 11.11 C111.8 12.55, 113.99 14.13, 116.08 15.82 C118.17 17.5, 120.17 19.32, 122.06 21.23 C123.95 23.15, 125.74 25.18, 127.4 27.3 C129.06 29.41, 130.62 31.64, 132.04 33.93 C133.46 36.22, 134.76 38.61, 135.92 41.04 C137.08 43.48, 138.11 46, 138.99 48.55 C139.87 51.11, 140.61 53.73, 141.21 56.37 C141.8 59.01, 142.25 61.69, 142.55 64.38 C142.85 67.07, 142.93 71.15, 143 72.5 C143.07 73.85, 143.07 71.15, 143 72.5" stroke="none" stroke-width="0" fill="#ffca3a"></path><path d="M143 72.5 C143 75.21, 142.85 77.93, 142.55 80.62 C142.25 83.31, 141.8 85.99, 141.21 88.63 C140.61 91.27, 139.87 93.89, 138.99 96.45 C138.11 99, 137.08 101.52, 135.92 103.96 C134.76 106.39, 133.46 108.78, 132.04 111.07 C130.62 113.36, 129.06 115.59, 127.4 117.7 C125.74 119.82, 123.95 121.85, 122.06 123.77 C120.17 125.68, 118.17 127.5, 116.08 129.18 C113.99 130.87, 111.8 132.45, 109.54 133.89 C107.28 135.33, 104.93 136.65, 102.52 137.82 C100.12 138.99, 97.63 140.04, 95.11 140.93 C92.6 141.83, 90.01 142.58, 87.41 143.18 C84.81 143.78, 82.16 144.24, 79.51 144.54 C76.85 144.85, 74.17 145, 71.5 145 C68.83 145, 66.15 144.85, 63.49 144.54 C60.84 144.24, 58.19 143.78, 55.59 143.18 C52.99 142.58, 50.4 141.83, 47.89 140.93 C45.37 140.04, 42.88 138.99, 40.48 137.82 C38.07 136.65, 35.72 135.33, 33.46 133.89 C31.2 132.45, 29.01 130.87, 26.92 129.18 C24.83 127.5, 22.83 125.68, 20.94 123.77 C19.05 121.85, 17.26 119.82, 15.6 117.7 C13.94 115.59, 12.38 113.36, 10.96 111.07 C9.54 108.78, 8.24 106.39, 7.08 103.96 C5.92 101.52, 4.89 99, 4.01 96.45 C3.13 93.89, 2.39 91.27, 1.79 88.63 C1.2 85.99, 0.75 83.31, 0.45 80.62 C0.15 77.93, 0 75.21, 0 72.5 C0 69.79, 0.15 67.07, 0.45 64.38 C0.75 61.69, 1.2 59.01, 1.79 56.37 C2.39 53.73, 3.13 51.11, 4.01 48.55 C4.89 46, 5.92 43.48, 7.08 41.04 C8.24 38.61, 9.54 36.22, 10.96 33.93 C12.38 31.64, 13.94 29.41, 15.6 27.3 C17.26 25.18, 19.05 23.15, 20.94 21.23 C22.83 19.32, 24.83 17.5, 26.92 15.82 C29.01 14.13, 31.2 12.55, 33.46 11.11 C35.72 9.67, 38.07 8.35, 40.48 7.18 C42.88 6.01, 45.37 4.96, 47.89 4.07 C50.4 3.17, 52.99 2.42, 55.59 1.82 C58.19 1.22, 60.84 0.76, 63.49 0.46 C66.15 0.15, 68.83 0, 71.5 0 C74.17 0, 76.85 0.15, 79.51 0.46 C82.16 0.76, 84.81 1.22, 87.41 1.82 C90.01 2.42, 92.6 3.17, 95.11 4.07 C97.63 4.96, 100.12 6.01, 102.52 7.18 C104.93 8.35, 107.28 9.67, 109.54 11.11 C111.8 12.55, 113.99 14.13, 116.08 15.82 C118.17 17.5, 120.17 19.32, 122.06 21.23 C123.95 23.15, 125.74 25.18, 127.4 27.3 C129.06 29.41, 130.62 31.64, 132.04 33.93 C133.46 36.22, 134.76 38.61, 135.92 41.04 C137.08 43.48, 138.11 46, 138.99 48.55 C139.87 51.11, 140.61 53.73, 141.21 56.37 C141.8 59.01, 142.25 61.69, 142.55 64.38 C142.85 67.07, 142.93 71.15, 143 72.5 C143.07 73.85, 143.07 71.15, 143 72.5" stroke="#000000" stroke-width="4" fill="none"></path></g><g stroke-linecap="round" transform="translate(78.5 240.5) rotate(0 71.5 72.5)"><path d="M143 72.5 C143 75.21, 142.85 77.93, 142.55 80.62 C142.25 83.31, 141.8 85.99, 141.21 88.63 C140.61 91.27, 139.87 93.89, 138.99 96.45 C138.11 99, 137.08 101.52, 135.92 103.96 C134.76 106.39, 133.46 108.78, 132.04 111.07 C130.62 113.36, 129.06 115.59, 127.4 117.7 C125.74 119.82, 123.95 121.85, 122.06 123.77 C120.17 125.68, 118.17 127.5, 116.08 129.18 C113.99 130.87, 111.8 132.45, 109.54 133.89 C107.28 135.33, 104.93 136.65, 102.52 137.82 C100.12 138.99, 97.63 140.04, 95.11 140.93 C92.6 141.83, 90.01 142.58, 87.41 143.18 C84.81 143.78, 82.16 144.24, 79.51 144.54 C76.85 144.85, 74.17 145, 71.5 145 C68.83 145, 66.15 144.85, 63.49 144.54 C60.84 144.24, 58.19 143.78, 55.59 143.18 C52.99 142.58, 50.4 141.83, 47.89 140.93 C45.37 140.04, 42.88 138.99, 40.48 137.82 C38.07 136.65, 35.72 135.33, 33.46 133.89 C31.2 132.45, 29.01 130.87, 26.92 129.18 C24.83 127.5, 22.83 125.68, 20.94 123.77 C19.05 121.85, 17.26 119.82, 15.6 117.7 C13.94 115.59, 12.38 113.36, 10.96 111.07 C9.54 108.78, 8.24 106.39, 7.08 103.96 C5.92 101.52, 4.89 99, 4.01 96.45 C3.13 93.89, 2.39 91.27, 1.79 88.63 C1.2 85.99, 0.75 83.31, 0.45 80.62 C0.15 77.93, 0 75.21, 0 72.5 C0 69.79, 0.15 67.07, 0.45 64.38 C0.75 61.69, 1.2 59.01, 1.79 56.37 C2.39 53.73, 3.13 51.11, 4.01 48.55 C4.89 46, 5.92 43.48, 7.08 41.04 C8.24 38.61, 9.54 36.22, 10.96 33.93 C12.38 31.64, 13.94 29.41, 15.6 27.3 C17.26 25.18, 19.05 23.15, 20.94 21.23 C22.83 19.32, 24.83 17.5, 26.92 15.82 C29.01 14.13, 31.2 12.55, 33.46 11.11 C35.72 9.67, 38.07 8.35, 40.48 7.18 C42.88 6.01, 45.37 4.96, 47.89 4.07 C50.4 3.17, 52.99 2.42, 55.59 1.82 C58.19 1.22, 60.84 0.76, 63.49 0.46 C66.15 0.15, 68.83 0, 71.5 0 C74.17 0, 76.85 0.15, 79.51 0.46 C82.16 0.76, 84.81 1.22, 87.41 1.82 C90.01 2.42, 92.6 3.17, 95.11 4.07 C97.63 4.96, 100.12 6.01, 102.52 7.18 C104.93 8.35, 107.28 9.67, 109.54 11.11 C111.8 12.55, 113.99 14.13, 116.08 15.82 C118.17 17.5, 120.17 19.32, 122.06 21.23 C123.95 23.15, 125.74 25.18, 127.4 27.3 C129.06 29.41, 130.62 31.64, 132.04 33.93 C133.46 36.22, 134.76 38.61, 135.92 41.04 C137.08 43.48, 138.11 46, 138.99 48.55 C139.87 51.11, 140.61 53.73, 141.21 56.37 C141.8 59.01, 142.25 61.69, 142.55 64.38 C142.85 67.07, 142.93 71.15, 143 72.5 C143.07 73.85, 143.07 71.15, 143 72.5" stroke="none" stroke-width="0" fill="#ff595e"></path><path d="M143 72.5 C143 75.21, 142.85 77.93, 142.55 80.62 C142.25 83.31, 141.8 85.99, 141.21 88.63 C140.61 91.27, 139.87 93.89, 138.99 96.45 C138.11 99, 137.08 101.52, 135.92 103.96 C134.76 106.39, 133.46 108.78, 132.04 111.07 C130.62 113.36, 129.06 115.59, 127.4 117.7 C125.74 119.82, 123.95 121.85, 122.06 123.77 C120.17 125.68, 118.17 127.5, 116.08 129.18 C113.99 130.87, 111.8 132.45, 109.54 133.89 C107.28 135.33, 104.93 136.65, 102.52 137.82 C100.12 138.99, 97.63 140.04, 95.11 140.93 C92.6 141.83, 90.01 142.58, 87.41 143.18 C84.81 143.78, 82.16 144.24, 79.51 144.54 C76.85 144.85, 74.17 145, 71.5 145 C68.83 145, 66.15 144.85, 63.49 144.54 C60.84 144.24, 58.19 143.78, 55.59 143.18 C52.99 142.58, 50.4 141.83, 47.89 140.93 C45.37 140.04, 42.88 138.99, 40.48 137.82 C38.07 136.65, 35.72 135.33, 33.46 133.89 C31.2 132.45, 29.01 130.87, 26.92 129.18 C24.83 127.5, 22.83 125.68, 20.94 123.77 C19.05 121.85, 17.26 119.82, 15.6 117.7 C13.94 115.59, 12.38 113.36, 10.96 111.07 C9.54 108.78, 8.24 106.39, 7.08 103.96 C5.92 101.52, 4.89 99, 4.01 96.45 C3.13 93.89, 2.39 91.27, 1.79 88.63 C1.2 85.99, 0.75 83.31, 0.45 80.62 C0.15 77.93, 0 75.21, 0 72.5 C0 69.79, 0.15 67.07, 0.45 64.38 C0.75 61.69, 1.2 59.01, 1.79 56.37 C2.39 53.73, 3.13 51.11, 4.01 48.55 C4.89 46, 5.92 43.48, 7.08 41.04 C8.24 38.61, 9.54 36.22, 10.96 33.93 C12.38 31.64, 13.94 29.41, 15.6 27.3 C17.26 25.18, 19.05 23.15, 20.94 21.23 C22.83 19.32, 24.83 17.5, 26.92 15.82 C29.01 14.13, 31.2 12.55, 33.46 11.11 C35.72 9.67, 38.07 8.35, 40.48 7.18 C42.88 6.01, 45.37 4.96, 47.89 4.07 C50.4 3.17, 52.99 2.42, 55.59 1.82 C58.19 1.22, 60.84 0.76, 63.49 0.46 C66.15 0.15, 68.83 0, 71.5 0 C74.17 0, 76.85 0.15, 79.51 0.46 C82.16 0.76, 84.81 1.22, 87.41 1.82 C90.01 2.42, 92.6 3.17, 95.11 4.07 C97.63 4.96, 100.12 6.01, 102.52 7.18 C104.93 8.35, 107.28 9.67, 109.54 11.11 C111.8 12.55, 113.99 14.13, 116.08 15.82 C118.17 17.5, 120.17 19.32, 122.06 21.23 C123.95 23.15, 125.74 25.18, 127.4 27.3 C129.06 29.41, 130.62 31.64, 132.04 33.93 C133.46 36.22, 134.76 38.61, 135.92 41.04 C137.08 43.48, 138.11 46, 138.99 48.55 C139.87 51.11, 140.61 53.73, 141.21 56.37 C141.8 59.01, 142.25 61.69, 142.55 64.38 C142.85 67.07, 142.93 71.15, 143 72.5 C143.07 73.85, 143.07 71.15, 143 72.5" stroke="#000000" stroke-width="4" fill="none"></path></g><g stroke-linecap="round" transform="translate(79.5 68.5) rotate(0 71.5 72.5)"><path d="M143 72.5 C143 75.21, 142.85 77.93, 142.55 80.62 C142.25 83.31, 141.8 85.99, 141.21 88.63 C140.61 91.27, 139.87 93.89, 138.99 96.45 C138.11 99, 137.08 101.52, 135.92 103.96 C134.76 106.39, 133.46 108.78, 132.04 111.07 C130.62 113.36, 129.06 115.59, 127.4 117.7 C125.74 119.82, 123.95 121.85, 122.06 123.77 C120.17 125.68, 118.17 127.5, 116.08 129.18 C113.99 130.87, 111.8 132.45, 109.54 133.89 C107.28 135.33, 104.93 136.65, 102.52 137.82 C100.12 138.99, 97.63 140.04, 95.11 140.93 C92.6 141.83, 90.01 142.58, 87.41 143.18 C84.81 143.78, 82.16 144.24, 79.51 144.54 C76.85 144.85, 74.17 145, 71.5 145 C68.83 145, 66.15 144.85, 63.49 144.54 C60.84 144.24, 58.19 143.78, 55.59 143.18 C52.99 142.58, 50.4 141.83, 47.89 140.93 C45.37 140.04, 42.88 138.99, 40.48 137.82 C38.07 136.65, 35.72 135.33, 33.46 133.89 C31.2 132.45, 29.01 130.87, 26.92 129.18 C24.83 127.5, 22.83 125.68, 20.94 123.77 C19.05 121.85, 17.26 119.82, 15.6 117.7 C13.94 115.59, 12.38 113.36, 10.96 111.07 C9.54 108.78, 8.24 106.39, 7.08 103.96 C5.92 101.52, 4.89 99, 4.01 96.45 C3.13 93.89, 2.39 91.27, 1.79 88.63 C1.2 85.99, 0.75 83.31, 0.45 80.62 C0.15 77.93, 0 75.21, 0 72.5 C0 69.79, 0.15 67.07, 0.45 64.38 C0.75 61.69, 1.2 59.01, 1.79 56.37 C2.39 53.73, 3.13 51.11, 4.01 48.55 C4.89 46, 5.92 43.48, 7.08 41.04 C8.24 38.61, 9.54 36.22, 10.96 33.93 C12.38 31.64, 13.94 29.41, 15.6 27.3 C17.26 25.18, 19.05 23.15, 20.94 21.23 C22.83 19.32, 24.83 17.5, 26.92 15.82 C29.01 14.13, 31.2 12.55, 33.46 11.11 C35.72 9.67, 38.07 8.35, 40.48 7.18 C42.88 6.01, 45.37 4.96, 47.89 4.07 C50.4 3.17, 52.99 2.42, 55.59 1.82 C58.19 1.22, 60.84 0.76, 63.49 0.46 C66.15 0.15, 68.83 0, 71.5 0 C74.17 0, 76.85 0.15, 79.51 0.46 C82.16 0.76, 84.81 1.22, 87.41 1.82 C90.01 2.42, 92.6 3.17, 95.11 4.07 C97.63 4.96, 100.12 6.01, 102.52 7.18 C104.93 8.35, 107.28 9.67, 109.54 11.11 C111.8 12.55, 113.99 14.13, 116.08 15.82 C118.17 17.5, 120.17 19.32, 122.06 21.23 C123.95 23.15, 125.74 25.18, 127.4 27.3 C129.06 29.41, 130.62 31.64, 132.04 33.93 C133.46 36.22, 134.76 38.61, 135.92 41.04 C137.08 43.48, 138.11 46, 138.99 48.55 C139.87 51.11, 140.61 53.73, 141.21 56.37 C141.8 59.01, 142.25 61.69, 142.55 64.38 C142.85 67.07, 142.93 71.15, 143 72.5 C143.07 73.85, 143.07 71.15, 143 72.5" stroke="none" stroke-width="0" fill="#ffca3a"></path><path d="M143 72.5 C143 75.21, 142.85 77.93, 142.55 80.62 C142.25 83.31, 141.8 85.99, 141.21 88.63 C140.61 91.27, 139.87 93.89, 138.99 96.45 C138.11 99, 137.08 101.52, 135.92 103.96 C134.76 106.39, 133.46 108.78, 132.04 111.07 C130.62 113.36, 129.06 115.59, 127.4 117.7 C125.74 119.82, 123.95 121.85, 122.06 123.77 C120.17 125.68, 118.17 127.5, 116.08 129.18 C113.99 130.87, 111.8 132.45, 109.54 133.89 C107.28 135.33, 104.93 136.65, 102.52 137.82 C100.12 138.99, 97.63 140.04, 95.11 140.93 C92.6 141.83, 90.01 142.58, 87.41 143.18 C84.81 143.78, 82.16 144.24, 79.51 144.54 C76.85 144.85, 74.17 145, 71.5 145 C68.83 145, 66.15 144.85, 63.49 144.54 C60.84 144.24, 58.19 143.78, 55.59 143.18 C52.99 142.58, 50.4 141.83, 47.89 140.93 C45.37 140.04, 42.88 138.99, 40.48 137.82 C38.07 136.65, 35.72 135.33, 33.46 133.89 C31.2 132.45, 29.01 130.87, 26.92 129.18 C24.83 127.5, 22.83 125.68, 20.94 123.77 C19.05 121.85, 17.26 119.82, 15.6 117.7 C13.94 115.59, 12.38 113.36, 10.96 111.07 C9.54 108.78, 8.24 106.39, 7.08 103.96 C5.92 101.52, 4.89 99, 4.01 96.45 C3.13 93.89, 2.39 91.27, 1.79 88.63 C1.2 85.99, 0.75 83.31, 0.45 80.62 C0.15 77.93, 0 75.21, 0 72.5 C0 69.79, 0.15 67.07, 0.45 64.38 C0.75 61.69, 1.2 59.01, 1.79 56.37 C2.39 53.73, 3.13 51.11, 4.01 48.55 C4.89 46, 5.92 43.48, 7.08 41.04 C8.24 38.61, 9.54 36.22, 10.96 33.93 C12.38 31.64, 13.94 29.41, 15.6 27.3 C17.26 25.18, 19.05 23.15, 20.94 21.23 C22.83 19.32, 24.83 17.5, 26.92 15.82 C29.01 14.13, 31.2 12.55, 33.46 11.11 C35.72 9.67, 38.07 8.35, 40.48 7.18 C42.88 6.01, 45.37 4.96, 47.89 4.07 C50.4 3.17, 52.99 2.42, 55.59 1.82 C58.19 1.22, 60.84 0.76, 63.49 0.46 C66.15 0.15, 68.83 0, 71.5 0 C74.17 0, 76.85 0.15, 79.51 0.46 C82.16 0.76, 84.81 1.22, 87.41 1.82 C90.01 2.42, 92.6 3.17, 95.11 4.07 C97.63 4.96, 100.12 6.01, 102.52 7.18 C104.93 8.35, 107.28 9.67, 109.54 11.11 C111.8 12.55, 113.99 14.13, 116.08 15.82 C118.17 17.5, 120.17 19.32, 122.06 21.23 C123.95 23.15, 125.74 25.18, 127.4 27.3 C129.06 29.41, 130.62 31.64, 132.04 33.93 C133.46 36.22, 134.76 38.61, 135.92 41.04 C137.08 43.48, 138.11 46, 138.99 48.55 C139.87 51.11, 140.61 53.73, 141.21 56.37 C141.8 59.01, 142.25 61.69, 142.55 64.38 C142.85 67.07, 142.93 71.15, 143 72.5 C143.07 73.85, 143.07 71.15, 143 72.5" stroke="#000000" stroke-width="4" fill="none"></path></g></svg>